P3 16 16 255
49 49 49 66 66 66 66 66 66 49 49 49 15 15 15 0 0 0 0 0 0 15 15 15 49 49 49 66 66 66 66 66 66 49 49 49 15 15 15 0 0 0 0 0 0 0 0 0 66 66 66 88 88 88 88 88 88 66 66 66 20 20 20 0 0 0 0 0 0 20 20 20 66 66 66 88 88 88 88 88 88 66 66 66 20 20 20 0 0 0 0 0 0 0 0 0 66 66 66 88 88 88 88 88 88 66 66 66 20 20 20 0 0 0 0 0 0 20 20 20 66 66 66 88 88 88 88 88 88 66 66 66 20 20 20 0 0 0 0 0 0 0 0 0 49 49 49 66 66 66 66 66 66 55 55 55 32 32 32 20 20 20 20 20 20 32 32 32 55 55 55 66 66 66 66 66 66 55 55 55 32 32 32 20 20 20 20 20 20 15 15 15 15 15 15 20 20 20 20 20 20 32 32 32 55 55 55 66 66 66 66 66 66 55 55 55 32 32 32 20 20 20 20 20 20 32 32 32 55 55 55 66 66 66 66 66 66 49 49 49 0 0 0 0 0 0 0 0 0 20 20 20 66 66 66 88 88 88 88 88 88 66 66 66 20 20 20 0 0 0 0 0 0 20 20 20 66 66 66 88 88 88 88 88 88 66 66 66 0 0 0 0 0 0 0 0 0 20 20 20 66 66 66 88 88 88 88 88 88 66 66 66 20 20 20 0 0 0 0 0 0 20 20 20 66 66 66 88 88 88 88 88 88 66 66 66 15 15 15 20 20 20 20 20 20 32 32 32 55 55 55 66 66 66 66 66 66 55 55 55 32 32 32 20 20 20 20 20 20 32 32 32 55 55 55 66 66 66 66 66 66 49 49 49 49 49 49 66 66 66 66 66 66 55 55 55 32 32 32 20 20 20 20 20 20 32 32 32 55 55 55 66 66 66 66 66 66 55 55 55 32 32 32 20 20 20 20 20 20 15 15 15 66 66 66 88 88 88 88 88 88 66 66 66 20 20 20 0 0 0 0 0 0 20 20 20 66 66 66 88 88 88 88 88 88 66 66 66 20 20 20 0 0 0 0 0 0 0 0 0 66 66 66 88 88 88 88 88 88 66 66 66 20 20 20 0 0 0 0 0 0 20 20 20 66 66 66 88 88 88 88 88 88 66 66 66 20 20 20 0 0 0 0 0 0 0 0 0 49 49 49 66 66 66 66 66 66 55 55 55 32 32 32 20 20 20 20 20 20 32 32 32 55 55 55 66 66 66 66 66 66 55 55 55 32 32 32 20 20 20 20 20 20 15 15 15 15 15 15 20 20 20 20 20 20 32 32 32 55 55 55 66 66 66 66 66 66 55 55 55 32 32 32 20 20 20 20 20 20 32 32 32 55 55 55 66 66 66 66 66 66 49 49 49 0 0 0 0 0 0 0 0 0 20 20 20 66 66 66 88 88 88 88 88 88 66 66 66 20 20 20 0 0 0 0 0 0 20 20 20 66 66 66 88 88 88 88 88 88 66 66 66 0 0 0 0 0 0 0 0 0 20 20 20 66 66 66 88 88 88 88 88 88 66 66 66 20 20 20 0 0 0 0 0 0 20 20 20 66 66 66 88 88 88 88 88 88 66 66 66 0 0 0 0 0 0 0 0 0 15 15 15 49 49 49 66 66 66 66 66 66 49 49 49 15 15 15 0 0 0 0 0 0 15 15 15 49 49 49 66 66 66 66 66 66 49 49 49 