P3 16 16 255
255 255 235 255 255 235 255 255 235 255 255 235 0 0 0 0 0 0 0 0 0 0 0 0 255 255 235 255 255 235 255 255 235 255 255 235 0 0 0 0 0 0 0 0 0 0 0 0 255 255 235 255 255 235 255 255 235 255 255 235 0 0 0 0 0 0 0 0 0 0 0 0 255 255 235 255 255 235 255 255 235 255 255 235 0 0 0 0 0 0 0 0 0 0 0 0 255 255 235 255 255 235 255 255 235 255 255 235 0 0 0 0 0 0 0 0 0 0 0 0 255 255 235 255 255 235 255 255 235 255 255 235 0 0 0 0 0 0 0 0 0 0 0 0 255 255 235 255 255 235 255 255 235 255 255 235 0 0 0 0 0 0 0 0 0 0 0 0 255 255 235 255 255 235 255 255 235 255 255 235 0 0 0 0 0 0 0 0 0 0 0 0 0 0 0 0 0 0 0 0 0 0 0 0 255 255 235 255 255 235 255 255 235 255 255 235 0 0 0 0 0 0 0 0 0 0 0 0 255 255 235 255 255 235 255 255 235 255 255 235 0 0 0 0 0 0 0 0 0 0 0 0 255 255 235 255 255 235 255 255 235 255 255 235 0 0 0 0 0 0 0 0 0 0 0 0 255 255 235 255 255 235 255 255 235 255 255 235 0 0 0 0 0 0 0 0 0 0 0 0 255 255 235 255 255 235 255 255 235 255 255 235 0 0 0 0 0 0 0 0 0 0 0 0 255 255 235 255 255 235 255 255 235 255 255 235 0 0 0 0 0 0 0 0 0 0 0 0 255 255 235 255 255 235 255 255 235 255 255 235 0 0 0 0 0 0 0 0 0 0 0 0 255 255 235 255 255 235 255 255 235 255 255 235 255 255 235 255 255 235 255 255 235 255 255 235 0 0 0 0 0 0 0 0 0 0 0 0 255 255 235 255 255 235 255 255 235 255 255 235 0 0 0 0 0 0 0 0 0 0 0 0 255 255 235 255 255 235 255 255 235 255 255 235 0 0 0 0 0 0 0 0 0 0 0 0 255 255 235 255 255 235 255 255 235 255 255 235 0 0 0 0 0 0 0 0 0 0 0 0 255 255 235 255 255 235 255 255 235 255 255 235 0 0 0 0 0 0 0 0 0 0 0 0 255 255 235 255 255 235 255 255 235 255 255 235 0 0 0 0 0 0 0 0 0 0 0 0 255 255 235 255 255 235 255 255 235 255 255 235 0 0 0 0 0 0 0 0 0 0 0 0 255 255 235 255 255 235 255 255 235 255 255 235 0 0 0 0 0 0 0 0 0 0 0 0 0 0 0 0 0 0 0 0 0 0 0 0 255 255 235 255 255 235 255 255 235 255 255 235 0 0 0 0 0 0 0 0 0 0 0 0 255 255 235 255 255 235 255 255 235 255 255 235 0 0 0 0 0 0 0 0 0 0 0 0 255 255 235 255 255 235 255 255 235 255 255 235 0 0 0 0 0 0 0 0 0 0 0 0 255 255 235 255 255 235 255 255 235 255 255 235 0 0 0 0 0 0 0 0 0 0 0 0 255 255 235 255 255 235 255 255 235 255 255 235 0 0 0 0 0 0 0 0 0 0 0 0 255 255 235 255 255 235 255 255 235 255 255 235 0 0 0 0 0 0 0 0 0 0 0 0 255 255 235 255 255 235 255 255 235 255 255 235 0 0 0 0 0 0 0 0 0 0 0 0 255 255 235 255 255 235 255 255 235 255 255 235 